<svg xmlns="http://www.w3.org/2000/svg" width="24" height="24" viewBox="0 0 24 24">
    <g fill="none" fill-rule="evenodd">
        <g>
            <g>
                <g>
                    <g>
                        <path fill="#EEE" d="M8.653 11.61c.198.219.48.344.776.344.295 0 .577-.125.775-.344l.502-.56c.296-.329.767-.435 1.175-.266.408.17.666.578.643 1.02l-.037.747c-.017.296.093.585.303.795.21.21.498.32.794.303l.747-.038c.442-.023.85.235 1.019.644.169.409-.29.179-.618.475l-.555.502c-.22.198.154.997.154 1.293 0 .296.533.466.753.664l.569.799c.328.296-.134.767-.303 1.176-.17.409-.577.667-1.02.644l-.746-.038c-.296-.015-.85-.046-1.06.163-.209.21-.44.64-.425.935v.748c.022.441.19.85-.218 1.019-.408.169-.879.839-1.175.51l-1.108-.51c-.198-.22-.187-.61-.482-.61-.296 0-.265-.435-.463-.216l-1.032.217c-.296.328-.55.44-.645.609-.095.167-.666-.578-.643-1.02l.037-.747c.015-.296-.096-.584-.305-.793-.209-.209-.496-.32-.791-.305l-.748.038c-.441.022-.849-.236-1.018-.644-.169-.409-.063-.88.265-1.176l.556-.502c.219-.199.344-.48.344-.776 0-.296-.125-.578-.344-.777l-.556-.502c-.328-.296-.434-.767-.265-1.176.17-.408.577-.666 1.018-.644l.748.038c.295.015.583-.095.792-.305.21-.209.32-.497.304-.793l-.037-.748c-.023-.441.235-.85.643-1.019.409-.169.879-.063 1.175.265l.502.56zM20.758 3.806c.206-.08.44-.031.596.125.157.156.206.39.125.597l-.371.956c-.089.226-.02.484.17.636l.8.643c.172.138.246.365.189.578-.057.214-.94.104-1.16.138l-.307.426c-.24.037-.43.225-.466.466l-.157 1.014c-.034.218-.193.396-.407.453-.213.057-.44-.017-.579-.19l-.88-1.137c-.151-.19-.409-.259-.636-.171l-.956.371c-.206.08-.203.37-.36.214-.156-.157-.205-.39-.125-.597l.372-.956c.088-.226.02-.484-.17-.636l-.8-.643c-.171-.139-.246-.365-.188-.579.057-.213.234-.372.452-.406l1.014-.157c.24-.037.429-.225.466-.466l.157-1.012c.033-.219.193-.397.406-.454.214-.057.44.017.579.19l.643.799c.152.19.41.258.636.17l.957-.372z" transform="translate(-120 -1078) translate(120 834) translate(0 240) translate(0 4)"/>
                        <path stroke="#484848" stroke-linecap="round" stroke-linejoin="round" stroke-width="1.2" d="M11.316 8.345c.51.212.832.721.804 1.273l-.047.934c-.02.37.117.73.379.992.261.262.622.4.992.379l.934-.047c.552-.029 1.062.293 1.273.804.212.51.079 1.1-.332 1.469l-.694.627c-.274.248-.431.6-.431.97s.157.721.431.969l.694.627c.41.37.544.958.332 1.469-.21.51-.721.833-1.273.804l-.934-.047c-.37-.02-.73.12-.99.38-.262.262-.4.622-.381.991l.047.934c.028.552-.294 1.061-.804 1.273-.51.211-1.099.079-1.469-.331l-.627-.7c-.248-.274-.6-.43-.97-.43-.369 0-.721.156-.969.43l-.627.7c-.37.41-.958.542-1.469.33-.51-.21-.832-.72-.804-1.272l.047-.934c.019-.369-.12-.729-.381-.99s-.621-.4-.99-.381l-.934.047c-.552.028-1.061-.294-1.273-.804-.211-.51-.079-1.099.331-1.469l.695-.627c.274-.248.43-.6.43-.97 0-.369-.156-.721-.43-.969l-.695-.627c-.41-.37-.542-.958-.33-1.469.21-.51.72-.832 1.272-.804l.934.047c.37.02.73-.12.99-.38.262-.262.4-.622.381-.991l-.047-.934c-.028-.552.294-1.061.804-1.273.51-.211 1.099-.079 1.469.331l.627.7c.248.274.6.43.97.43.369 0 .721-.156.969-.43l.627-.7c.37-.41.958-.542 1.469-.33zM8.25 13.876c-1.036 0-1.875.84-1.875 1.875 0 1.036.84 1.875 1.875 1.875 1.036 0 1.875-.84 1.875-1.875 0-1.036-.84-1.875-1.875-1.875zm9.937-12.831l.865 1.075c.205.255.551.347.856.229l1.286-.501c.277-.108.592-.042.802.169.21.21.277.525.169.802l-.5 1.286c-.119.305-.026.651.229.856l1.075.864c.232.186.332.492.255.779-.077.287-.316.502-.61.547l-1.363.211c-.323.05-.577.303-.627.626l-.211 1.364c-.045.294-.26.533-.547.61-.287.077-.593-.023-.779-.255l-.864-1.075c-.205-.255-.551-.348-.856-.23l-1.286.5c-.277.108-.592.042-.802-.169-.21-.21-.277-.525-.169-.802l.5-1.286c.119-.305.026-.651-.229-.856l-1.075-.865c-.231-.186-.331-.491-.254-.778.077-.286.316-.5.609-.546l1.363-.211c.323-.05.577-.304.627-.627l.211-1.362c.045-.294.26-.533.547-.61.287-.077.592.023.778.255zM18.638 5c-.207 0-.375.168-.375.375s.168.375.375.375.375-.168.375-.375S18.845 5 18.638 5z" transform="translate(-120 -1078) translate(120 834) translate(0 240) translate(0 4)"/>
                    </g>
                </g>
            </g>
        </g>
    </g>
</svg>
