<svg width="64" height="64" viewBox="0 0 64 64" fill="none" xmlns="http://www.w3.org/2000/svg">
<g clip-path="url(#clip0)">
<rect width="64" height="64" rx="32" fill="white"/>
<path d="M0.00115967 14.1621V16.0094V21.3459V22.8237H11.6595L0.00115967 14.1621Z" fill="#1D2088"/>
<path d="M63.9989 22.8237V16.0094V14.1621L52.3406 22.8237H63.9989Z" fill="#1D2088"/>
<path d="M40.6431 44.334V63.4634H59.8957C60.0599 63.3813 60.2241 63.2992 60.3883 63.2171C60.4704 63.1761 60.5525 63.135 60.6346 63.094C60.7167 63.0529 60.7988 63.0119 60.8809 62.9298C60.963 62.8887 61.0451 62.8066 61.1272 62.7656C61.2093 62.7245 61.2504 62.6835 61.3325 62.6014C61.4146 62.5193 61.5377 62.4782 61.6198 62.3961L61.6609 62.3551C61.9072 62.1498 62.1124 61.9446 62.3177 61.6983C62.3177 61.6983 62.3177 61.6983 62.3587 61.6572C62.4408 61.5341 62.564 61.4109 62.6461 61.2878C62.6461 61.2467 62.6871 61.2467 62.6871 61.2057C62.7692 61.0825 62.8513 60.9594 62.9334 60.8362L40.6431 44.334Z" fill="#1D2088"/>
<path d="M0.00115967 40.1072V42.6523V48.7277L11.6595 40.1072H0.00115967Z" fill="#1D2088"/>
<path d="M62.4408 2.42197C61.2093 0.944158 59.321 0 57.2274 0H40.6431V18.5958L62.4408 2.42197Z" fill="#1D2088"/>
<path d="M23.3578 0H6.77351C4.67995 0 2.83268 0.944158 1.56012 2.42197L23.3578 18.5958V0Z" fill="#1D2088"/>
<path d="M23.3579 44.334L1.06754 60.8362C1.14964 60.9594 1.23174 61.0825 1.31384 61.2057C1.35489 61.2467 1.35489 61.2467 1.39594 61.2878C1.47804 61.4109 1.56014 61.5341 1.68329 61.6162L1.72434 61.6572C1.88854 61.8625 2.09379 62.0677 2.29905 62.2319C2.3401 62.273 2.38115 62.314 2.4222 62.314C2.5043 62.3961 2.5864 62.4372 2.6685 62.5193C2.7506 62.5603 2.8327 62.6424 2.87375 62.6835C2.95585 62.7245 3.03795 62.8066 3.12005 62.8477C3.20215 62.8887 3.3253 62.9708 3.4074 63.0119C3.48951 63.0529 3.53056 63.094 3.61266 63.135C3.77686 63.2171 3.94106 63.2992 4.10526 63.3813H23.3579V44.334Z" fill="#1D2088"/>
<path d="M63.9989 48.7277V40.1072H52.3406L63.9989 48.7277Z" fill="#1D2088"/>
<path d="M23.3588 22.8234V18.5952L1.56107 2.42139C0.575864 3.61185 0.00115967 5.13071 0.00115967 6.77272V7.71688L20.3621 22.8234H23.3588V22.8234Z" fill="white"/>
<path d="M64.0007 55.1712L43.6398 40.0647H40.6431V44.3339L62.9334 60.8772C63.0976 60.6309 63.2208 60.3846 63.3439 60.1383C63.3439 60.0973 63.385 60.0973 63.385 60.0562C63.426 59.9331 63.4671 59.851 63.5081 59.7278C63.5492 59.6457 63.5492 59.5636 63.5902 59.5226C63.6313 59.4405 63.6723 59.3173 63.6723 59.2352C63.7134 59.071 63.7544 58.9068 63.7955 58.7426C63.7955 58.6605 63.8365 58.6195 63.8365 58.5374C63.8776 58.4142 63.8776 58.25 63.9186 58.1269C63.9186 58.0448 63.9186 58.0037 63.9597 57.9216C63.9597 57.7163 64.0007 57.5111 64.0007 57.3058V55.1712V55.1712Z" fill="white"/>
<path d="M14.533 22.8241L0.00115967 12.0278V14.1624L11.6595 22.8241H14.533Z" fill="white"/>
<path d="M49.4676 40.1072L63.9994 50.9034V48.7277L52.3411 40.1072H49.4676Z" fill="white"/>
<path d="M20.3621 22.8233L0.00115967 7.7168V12.0271L14.533 22.8233H20.3621Z" fill="#E60012"/>
<path d="M43.6399 40.1072L64.0009 55.1727V50.9034L49.469 40.1072H43.6399Z" fill="#E60012"/>
<path d="M40.6431 20.7298L63.3439 3.8992C63.0976 3.36554 62.7692 2.87294 62.3998 2.42139L40.6431 18.5952V20.7298Z" fill="white"/>
<path d="M23.3597 42.1589L0.330444 59.2769C0.412545 59.5232 0.494646 59.8106 0.617797 60.0569C0.617797 60.0979 0.658847 60.139 0.658847 60.18C0.781998 60.4263 0.905149 60.6726 1.0283 60.8779L23.3597 44.3346V42.1589Z" fill="white"/>
<path d="M52.3426 22.8233L64.0009 14.1617V7.7168L43.6399 22.8233H52.3426Z" fill="white"/>
<path d="M11.6595 40.1072L0.00115967 48.7277V55.1727L20.3621 40.1072H11.6595Z" fill="white"/>
<path d="M23.3588 40.1072H20.3621L0.00115967 55.1726V57.2252C0.00115967 57.4304 0.00115967 57.6357 0.04221 57.8409C0.04221 57.923 0.04221 57.9641 0.0832603 58.0462C0.0832603 58.2104 0.124311 58.3335 0.165361 58.4567C0.165361 58.5388 0.206411 58.5798 0.206411 58.6619C0.247462 58.8261 0.288512 58.9903 0.329562 59.1545C0.329562 59.1956 0.329562 59.2366 0.370613 59.2366L23.3999 42.1597V40.1072H23.3588Z" fill="#E60012"/>
<path d="M40.6431 22.8244H43.6398L64.0007 7.71783V6.77367C64.0007 5.74741 63.7544 4.7622 63.3439 3.90015L40.6431 20.7308V22.8244Z" fill="#E60012"/>
<path d="M23.3588 22.824H20.3621H14.533H11.6595H0.00115967V26.2722H23.3588V22.824Z" fill="white"/>
<path d="M40.6431 40.1057H43.6398H49.4689H52.3424H64.0007V36.6165H40.6431V40.1057Z" fill="white"/>
<path d="M43.6398 22.824H40.6431V26.2722H64.0007V22.824H52.3424H43.6398Z" fill="white"/>
<path d="M20.3621 40.1057H23.3588V36.6165H0.00115967V40.1057H11.6595H20.3621Z" fill="white"/>
<path d="M37.1932 36.6165V63.4634H40.6414V44.3339V40.1057V36.6165H37.1932Z" fill="white"/>
<path d="M23.3598 22.824V26.2722H26.808V0H23.3598V18.5958V22.824Z" fill="white"/>
<path d="M40.6414 26.2722V22.824V20.7304V18.5958V0H37.1932V26.2722H40.6414Z" fill="white"/>
<path d="M23.3598 36.6165V40.1057V42.1583V44.3339V63.4634H26.808V36.6165H23.3598Z" fill="white"/>
<path d="M26.8059 36.6171V63.4641H37.1916V36.6171H40.6398H63.9975V26.2725H40.6398H37.1916V0.000244141H26.8059V26.2725H23.3576H0V36.6171H23.3576H26.8059Z" fill="#E60012"/>
</g>
<defs>
<clipPath id="clip0">
<rect width="64" height="64" rx="32" fill="white"/>
</clipPath>
</defs>
</svg>
