<svg width="64" height="64" viewBox="0 0 64 64" fill="none" xmlns="http://www.w3.org/2000/svg">
<circle cx="32" cy="32" r="32" fill="#D80027"/>
<path d="M42.0239 23.6074L45.4836 28.8214L51.0865 26.8346L47.6215 32.0439L51.0808 37.2574L45.4797 35.2631L42.0147 40.4726L42.0182 34.0309L36.4171 32.0363L42.0202 30.0495L42.0239 23.6074Z" fill="white"/>
<path d="M32.5833 45.0718C26.0019 45.0718 20.6665 39.237 20.6665 32.0396C20.6665 24.8422 26.0019 19.0074 32.5833 19.0074C34.6355 19.0074 36.5661 19.5749 38.2519 20.5738C35.6075 17.7455 31.9908 16 28 16C19.8998 16 13.3333 23.1812 13.3333 32.0394C13.3333 40.8975 19.9 48.0788 28 48.0788C31.9908 48.0788 35.6075 46.3333 38.2519 43.505C36.5663 44.5043 34.6355 45.0718 32.5833 45.0718Z" fill="white"/>
</svg>
