<svg xmlns="http://www.w3.org/2000/svg" xmlns:xlink="http://www.w3.org/1999/xlink" id="Layer_1" data-name="Layer 1" viewBox="0 0 595.28 209.31"><defs><style>.cls-1{fill:#000;}.cls-2{fill:url(#linear-gradient);}.cls-3{fill:url(#linear-gradient-2);}.cls-4{fill:url(#linear-gradient-3);}.cls-5{fill:url(#linear-gradient-4);}.cls-6{fill:url(#linear-gradient-5);}.cls-7{fill:url(#linear-gradient-6);}</style><linearGradient id="linear-gradient" x1="72.83" y1="143.3" x2="36.46" y2="106.93" gradientUnits="userSpaceOnUse"><stop offset="0" stop-color="#7f1710"/><stop offset="0.05" stop-color="#891812"/><stop offset="0.43" stop-color="#cb211d"/><stop offset="0.6" stop-color="#e52421"/></linearGradient><linearGradient id="linear-gradient-2" x1="103.3" y1="98.08" x2="56.31" y2="58.65" xlink:href="#linear-gradient"/><linearGradient id="linear-gradient-3" x1="62.22" y1="78.43" x2="28.74" y2="111.9" xlink:href="#linear-gradient"/><linearGradient id="linear-gradient-4" x1="8.4" y1="91.33" x2="90.22" y2="91.33" gradientUnits="userSpaceOnUse"><stop offset="0" stop-color="#7f1710"/><stop offset="0.22" stop-color="#9c1b15"/><stop offset="0.56" stop-color="#c4201b"/><stop offset="0.83" stop-color="#dc2320"/><stop offset="1" stop-color="#e52421"/></linearGradient><linearGradient id="linear-gradient-5" x1="23.72" y1="137.15" x2="87.48" y2="137.15" xlink:href="#linear-gradient-4"/><linearGradient id="linear-gradient-6" x1="65.6" y1="79.28" x2="93.45" y2="79.28" xlink:href="#linear-gradient-4"/></defs><title>patırtı revize logo svg</title><path class="cls-1" d="M116.06,162a11.67,11.67,0,0,0-6-1.95q-3.69-.32-6.26-.31a5.68,5.68,0,0,1-4.58-2.7q-2-2.7-2-8.84v-74c.08-.08.48-.56,1.19-1.44a15.46,15.46,0,0,1,2-2.07,24.13,24.13,0,0,1,3.26-2.13,20.86,20.86,0,0,1,5.26-2.13,62,62,0,0,1,7.78-1.38,87.07,87.07,0,0,1,11-.63q19.3,0,27.71,8.34t8.41,27.78a40.69,40.69,0,0,1-3,16.31,25.25,25.25,0,0,1-8.09,10.59A35.12,35.12,0,0,1,142,132.86a42.28,42.28,0,0,1-12.1,1.7q-8.66,0-13.8-1.76V162Zm0-62.72v17.81a30.92,30.92,0,0,0,4.33,1q2.33.38,5.83.62a16.59,16.59,0,0,0,6.52-.75,23.41,23.41,0,0,0,5.77-2.88,12.63,12.63,0,0,0,4.39-6,27,27,0,0,0,1.63-9.91A20.09,20.09,0,0,0,143,90.91a15.86,15.86,0,0,0-3.63-5.39,13.2,13.2,0,0,0-5.46-2.82,31,31,0,0,0-5.64-1.13,29,29,0,0,0-5.65.19c-2.25.25-3.63.42-4.13.5s-1.26.25-2.26.5h-.13q-.12,0,0,16.55"/><path class="cls-1" d="M184.54,82.26a5.69,5.69,0,0,0-.13-1,13.57,13.57,0,0,1-.06-2.45,22.07,22.07,0,0,1,.38-3.45,16.28,16.28,0,0,1,1.25-3.7,10.7,10.7,0,0,1,2.51-3.51,12.87,12.87,0,0,1,4.27-2.45,18.28,18.28,0,0,1,6.33-1h3.51q3.26-.12,6.71,0c2.3.08,4.6.19,6.9.31a32.61,32.61,0,0,1,6.71,1.07,49.26,49.26,0,0,1,6.21,2.13,18.33,18.33,0,0,1,5.39,3.57,25.59,25.59,0,0,1,4.26,5.33,25,25,0,0,1,2.82,7.4,44.63,44.63,0,0,1,1,9.91v13.8a36.06,36.06,0,0,1-1.13,9.34,24.25,24.25,0,0,1-2.82,6.84,19.45,19.45,0,0,1-4.2,4.64,21.2,21.2,0,0,1-4.71,3,25.74,25.74,0,0,1-5.08,1.5,40.88,40.88,0,0,1-4.45.69c-1,.09-2.28.13-3.7.13H199.21c-.25,0-.62,0-1.13-.06s-1.44-.17-2.82-.38a23.72,23.72,0,0,1-3.95-.94,20.71,20.71,0,0,1-4.2-2.07,16.11,16.11,0,0,1-4-3.39,16.42,16.42,0,0,1-2.76-5.08,20.68,20.68,0,0,1-1.13-7,33.36,33.36,0,0,1,1.76-11.6,15.27,15.27,0,0,1,5.33-7.28,21.9,21.9,0,0,1,8-3.57,48.57,48.57,0,0,1,10.66-1q10.92,0,14.87-1.45T223.79,86q0-4.26-8.21-5.77a63.51,63.51,0,0,0-17.43-.63q-9.22.88-13.61,2.64M224.3,101.2a14.74,14.74,0,0,1-1.45,1.5,16.88,16.88,0,0,1-4.2,2.32,16.58,16.58,0,0,1-6.77,1.45,27.51,27.51,0,0,0-10,1.5c-2.55,1-3.83,2.43-3.83,4.27a5.3,5.3,0,0,0,2.76,4.88q2.76,1.63,11,1.63c2.26,0,4,0,5.2-.06a7.28,7.28,0,0,0,3.39-.94,7.92,7.92,0,0,0,2.2-1.63,7.74,7.74,0,0,0,1.06-3.2,31.73,31.73,0,0,0,.5-4.7c0-1.51.07-3.84.07-7"/><path class="cls-1" d="M299.29,118a17.77,17.77,0,0,1,.51,10.16q-1.26,4.64-4.27,6.15a29.75,29.75,0,0,1-12.73,1.19,31.31,31.31,0,0,1-11-3.45,20.54,20.54,0,0,1-7.84-7.65,21.71,21.71,0,0,1-3-11.41V59.06a12.6,12.6,0,0,1,1.25-6.46,7.94,7.94,0,0,1,4.14-3.7,21.19,21.19,0,0,1,5.89-1.45,51.26,51.26,0,0,1,7.53-.06V65.58H301.3v.94a20.31,20.31,0,0,1-.25,2.32,23.19,23.19,0,0,1-.75,3.39,16.22,16.22,0,0,1-1.7,3.57,13.41,13.41,0,0,1-2.82,3.32,13.1,13.1,0,0,1-4.39,2.32,18.88,18.88,0,0,1-6.14.94c-2,0-3.85.05-5.52.13l.13,29a7.47,7.47,0,0,0,1.37,5.2,6,6,0,0,0,4.08,2.14,26,26,0,0,0,5.14.12c1.71-.12,3.47-.31,5.27-.56a33.58,33.58,0,0,1,3.57-.38"/><path class="cls-1" d="M336.79,77.24q0-6.13-2-8.84a5.71,5.71,0,0,0-4.58-2.7q-2.58,0-6.27-.31a11.7,11.7,0,0,1-6-2v70.87q9.15.49,14.11-1.82t4.7-9.85V77.24Z"/><path class="cls-1" d="M401.26,64.7a10.34,10.34,0,0,0,.06,2.63,24.87,24.87,0,0,1-.06,4.58,27.66,27.66,0,0,1-1,4.7,7.1,7.1,0,0,1-3.07,4,10.79,10.79,0,0,1-6,1.5,67.15,67.15,0,0,0-8.15.38,11.92,11.92,0,0,0-5.14,1.88,7.2,7.2,0,0,0-3,4.26,29.91,29.91,0,0,0-.75,7.53v40.13a17.82,17.82,0,0,0-6-2.57q-3.7-.94-6.27-1.44a7.84,7.84,0,0,1-4.58-3q-2-2.44-2-7.09V88.65q0-.75.06-2.07c0-.87.19-2.09.44-3.63a23.54,23.54,0,0,1,1.26-4.64,21.91,21.91,0,0,1,2.63-4.83A19.11,19.11,0,0,1,364,69.09,21.78,21.78,0,0,1,370.46,66a29.43,29.43,0,0,1,8.85-1.25h21.95Z"/><path class="cls-1" d="M457.32,118a17.76,17.76,0,0,1,.5,10.16q-1.26,4.64-4.27,6.15a29.69,29.69,0,0,1-12.72,1.19,31.43,31.43,0,0,1-11-3.45A20.61,20.61,0,0,1,422,124.4a21.71,21.71,0,0,1-3-11.41V59.06a12.5,12.5,0,0,1,1.26-6.46,7.92,7.92,0,0,1,4.13-3.7,21.17,21.17,0,0,1,5.9-1.45,51.14,51.14,0,0,1,7.52-.06V65.58h21.58v.94a21.21,21.21,0,0,1-.26,2.32,20.85,20.85,0,0,1-.75,3.39,16.14,16.14,0,0,1-1.69,3.57,13.85,13.85,0,0,1-2.82,3.32,13.3,13.3,0,0,1-4.39,2.32,18.9,18.9,0,0,1-6.15.94c-2,0-3.85.05-5.52.13l.13,29a7.47,7.47,0,0,0,1.38,5.2,6,6,0,0,0,4.08,2.14,26,26,0,0,0,5.14.12c1.71-.12,3.47-.31,5.26-.56a33.42,33.42,0,0,1,3.58-.38"/><path class="cls-1" d="M494.82,77.24q0-6.13-2-8.84a5.7,5.7,0,0,0-4.58-2.7c-1.71,0-3.81-.1-6.27-.31a11.7,11.7,0,0,1-6-2v70.87q9.17.49,14.11-1.82t4.71-9.85V77.24Z"/><path class="cls-2" d="M46.57,150.82S8.2,118.15,30.89,116.36q12,.51,24,1.49c8.7.7,17.57.46,26.09,2.6,1.66.41,3.82.85,5.19,2,2.49,2,.84,2.89-1,5.08-5.27,6.3-9.82,13.22-15.64,19.06-3.32,3.33-7.24,7.29-11.8,8.85-4.76,1.62-7.55-1.9-11.22-4.57"/><path class="cls-3" d="M65.57,47.61c2.42.89,4.07,7.66,4.54,9.66a36.53,36.53,0,0,1,.63,12.51c-.78,7-2.52,11,4.19,15.61,0,0,18,15.22,17.57,25.56,0,0,8.89-50.24-26.93-63.34"/><path class="cls-4" d="M90.22,118.22S83,70.7,8.4,64.44c0,0,8.46,14,9.92,25.44,0,0-1.62,20.92,16.58,21.34,0,0,53.8,3.09,55.32,7"/><path class="cls-5" d="M8.4,64.44s1.31,2.16,3,5.46c52.33,6.21,69,33.5,73.94,46.39,2.82.61,4.65,1.26,4.91,1.93C90.22,118.22,83,70.7,8.4,64.44Z"/><path class="cls-6" d="M86.21,122.4a7.36,7.36,0,0,0-2.2-1.12c-4.77,5.89-9.07,12.16-14.43,17.54-3.32,3.33-7.24,7.3-11.8,8.86-4.76,1.62-7.55-1.91-11.22-4.58,0,0-16.92-14.41-21.63-24.61-7.4,7.61,21.63,32.33,21.63,32.33,3.67,2.67,6.46,6.19,11.22,4.57,4.56-1.56,8.48-5.52,11.8-8.85C75.4,140.7,80,133.78,85.22,127.48,87.05,125.29,88.7,124.39,86.21,122.4Z"/><path class="cls-7" d="M78.57,83.84c-6.71-4.59-5-8.57-4.19-15.6a36.59,36.59,0,0,0-.63-12.52,44.6,44.6,0,0,0-1.42-4.9,39.89,39.89,0,0,0-6.73-3.21c2.42.89,4.07,7.66,4.54,9.66a36.53,36.53,0,0,1,.63,12.51c-.78,7-2.53,11,4.19,15.61,0,0,18.05,15.22,17.57,25.56a81,81,0,0,0,.92-10.14C88.53,92.25,78.57,83.84,78.57,83.84Z"/></svg>